<svg xmlns="http://www.w3.org/2000/svg" xmlns:xlink="http://www.w3.org/1999/xlink" viewBox="0 0 1366 1667.75"><defs><style>.cls-1{fill:url(#Dégradé_sans_nom_111);}.cls-2{fill:#b7b7b7;opacity:0.34;}.cls-3{fill:#cbd1cd;}.cls-3,.cls-4{opacity:0.78;}.cls-4{fill:#f8e9da;}.cls-5{fill:#fefefe;}.cls-6{fill:#af6f8e;}.cls-7{fill:#9d6180;}.cls-8{fill:#9d6280;}.cls-9{fill:#80466c;}.cls-10{fill:#f7bf82;}.cls-11{fill:#683c65;}.cls-12{fill:#583555;}.cls-13{fill:#482a47;}.cls-14{fill:#dddacc;}.cls-15{fill:none;}.cls-16{fill:#2d2539;}.cls-17{fill:#2d2439;}</style><linearGradient id="Dégradé_sans_nom_111" x1="684.04" y1="8.95" x2="681.96" y2="1662.42" gradientUnits="userSpaceOnUse"><stop offset="0" stop-color="#2a2756"/><stop offset="0.12" stop-color="#293463"/><stop offset="0.34" stop-color="#285584"/><stop offset="0.51" stop-color="#2673a3"/><stop offset="0.54" stop-color="#3e7da3"/><stop offset="0.59" stop-color="#6990a4"/><stop offset="0.65" stop-color="#8ea0a4"/><stop offset="0.71" stop-color="#acada4"/><stop offset="0.77" stop-color="#c4b7a5"/><stop offset="0.83" stop-color="#d4bea5"/><stop offset="0.91" stop-color="#dec3a5"/><stop offset="1" stop-color="#e1c4a5"/></linearGradient></defs><g id="Calque_2" data-name="Calque 2"><rect class="cls-1" width="1366" height="1667.75"/><ellipse class="cls-2" cx="693.28" cy="1199.58" rx="107.36" ry="110.02"/><ellipse class="cls-3" cx="693.28" cy="1205.49" rx="96.86" ry="99.26"/><circle class="cls-4" cx="693.28" cy="1207.89" r="88.48"/><circle class="cls-5" cx="693.28" cy="1207.89" r="73.71"/><path class="cls-6" d="M1000.61,1201.37l.07-.13,0-.1C1000.68,1201.22,1000.65,1201.3,1000.61,1201.37Zm2-4.22.17-.35a1.54,1.54,0,0,0,.08-.19C1002.77,1196.8,1002.68,1197,1002.6,1197.15Zm5.34-11.23,0,.08.42-.88Zm2.46-5.15c-.12.27-.25.53-.38.8.15-.29.29-.59.43-.88Zm19.27-69.76-3.05-1a.67.67,0,0,1-.46-.64c0-.29,0-.6.1-.92.84-5.47,6.51-15.45,11.54-23.48l-64.89,16.46a6.12,6.12,0,0,0-1.71.71l-8.25,5a6.22,6.22,0,0,0-2.51,2.9l-6.9,16.35a6.24,6.24,0,0,1-5.74,3.81h-7a6.24,6.24,0,0,0-2.93.73l-15.42,8.21a6.24,6.24,0,0,1-2.93.73h-6.86a6.23,6.23,0,0,0-6.15,5.25,6.22,6.22,0,0,1-4.61,5.06l-3.3.84a6.29,6.29,0,0,0-4,3.11l-3.16,5.94a6.25,6.25,0,0,1-2.35,2.46l-14.37,8.4a6.22,6.22,0,0,1-3.09.86l-19.63.17a6.21,6.21,0,0,0-4.85,2.4l-4.8,6.15a6.26,6.26,0,0,1-4.16,2.35L821.1,1185a6.05,6.05,0,0,0-2.27.73l-34.33,19a6.22,6.22,0,0,1-6.69-.41l-7.65-5.57a6.26,6.26,0,0,0-3.59-1.2l-64.33-.79a6.27,6.27,0,0,0-3.84,1.26l-9.72,7.38a6.24,6.24,0,0,1-3.77,1.26H643.1a6,6,0,0,1-2.11-.37l-38.94-14a6.33,6.33,0,0,0-2.11-.37h-15a6.39,6.39,0,0,1-4.12-1.56c-1.51-1.27-4.86-3.37-12.3-6.46-11.67-4.85-51.25-5.43-62.88-5.49a6.2,6.2,0,0,1-5.09-2.7l-3.27-4.75a6.22,6.22,0,0,0-5.13-2.7h-6.64a6.22,6.22,0,0,1-5.79-3.94l-3.3-8.36a6.21,6.21,0,0,0-3.81-3.62L450.75,1145a6.26,6.26,0,0,1-2.15-1.24l-10.38-9.21a6.23,6.23,0,0,0-4.13-1.57h-8.2a6.23,6.23,0,0,1-5.67-3.65l-1.12-2.45a6.24,6.24,0,0,0-4.93-3.61l-4.86-.58a6.25,6.25,0,0,1-3.75-1.88c-14.79-15.42-19.93-18.22-21.32-18.73a5.94,5.94,0,0,1-1.25-.65q-3-2-6-3.93,1.23,3.26,2.31,6.62a2.37,2.37,0,0,1-1.69,3l-9,2.26c3.43-1,7.55-2.65,8.12-4.63.24-.84-1.21-4.54-3.53-9.65-67.56-42.55-98.48-33.34-134.06-38.23-3.23-.44-6.49-1-9.83-1.73-9.5-2.06-26.44-1.54-47,.5,7.63,11.69,19.61,31.52,24.88,48.33a2.39,2.39,0,0,1-1.67,3l-12.7,3.26.2-.06.42-.12.51-.15.57-.17,1.25-.39.77-.25c.65-.22,1.32-.45,2-.7l.86-.33.16-.06,1-.41.06,0c.41-.17.81-.35,1.19-.53a3.55,3.55,0,0,0,.44-.21c.39-.18.76-.38,1.1-.57l.39-.22a10.32,10.32,0,0,0,1.4-1c2.71-2.32-15.92-36.18-23.34-49.39C111.66,1062.72,0,1087.35,0,1087.35l119.81,90.89,124.43,94.39,33.95,25.75,4.54,3.44h0l5.23.42c6.92.56,13.59,1.12,20,1.67l4,.35,2.09.19,2.75.24,3.21.3,2.17.2,2.73.26,3.56.34,3.27.32,1.83.18,3.58.37,5.13.54.86.09,1,.11,2.44.27c3.12.35,6,.7,8.77,1l1.78.23,2.94.39c1.61.22,3.12.44,4.54.65l2.13.34,1,.16c1,.17,1.92.33,2.78.5.57.1,1.12.21,1.64.32,1.17.23,2.19.47,3.06.7l.42.12.13,0c.24.06.46.13.67.2a9.32,9.32,0,0,1,1.61.63,3.43,3.43,0,0,0,1.63.41h65.29a3.51,3.51,0,0,1,2.12.71c4.41,3.37,23.9,17.92,43.64,26.72a102.34,102.34,0,0,0,10.89,4.19l.64,1.06a.87.87,0,0,0,1.55-.11l.11-.26c1.19.34,2.37.63,3.53.89a3.42,3.42,0,0,1,1.83,1.05l13.36,14.6,6.71-2,6.48-1.91h0c34.38-10.1,74-21.8,117-34.5l5.51-1.62,8.09-2.4,15.42-4.56,3.65-1.08,69-20.42,44.73-13.26,3.15-.93h0l3.33-1c32.82-9.73,66.15-19.62,99.36-29.49l1.12-.33,7.41-2.2,4.62-1.37h0l3-.9,89.22-26.51.71-1.38.62-1.24c.66-1.31,1.25-2.49,1.75-3.51l.24-.49c.08-.15.15-.31.22-.45s.15-.29.21-.43l.47-1,.07-.16.06-.13c.1-.19.18-.36.25-.51a.65.65,0,0,0-.48-.92l-.82-.15h0l-16.48-3a.66.66,0,0,1-.39-1.06l.24-.3h0a.76.76,0,0,1,.08-.11q.33-.43.72-1l.27-.4.29-.43.3-.46.64-1,1.09-1.77.64-1.1c.13-.21.25-.42.37-.63.29-.49.58-1,.88-1.52l1.05-1.86.4-.72.14-.24.26-.49.15-.26c.14-.27.29-.53.44-.8,0-.11.12-.22.18-.33l.63-1.16.42-.78.66-1.23.09-.16c.24-.47.5-.94.74-1.41.15-.26.29-.53.42-.79s.28-.53.42-.79l.64-1.22c.07-.12.13-.25.19-.37l.54-1,.29-.57c.08-.15.16-.31.25-.46l.16-.33.25-.47c0-.11.11-.21.16-.32l.26-.48.15-.3.26-.5c.05-.1.1-.19.14-.29l.4-.77c.06-.13.13-.26.2-.38l.19-.39.27-.52c.17-.33.34-.66.5-1l.38-.74,1.8-3.55.61-1.22.05-.1.32-.64c.18-.34.35-.68.5-1a1.09,1.09,0,0,0,.08-.15l.24-.49.06-.11,0-.06c.13-.27.27-.53.4-.79a2.1,2.1,0,0,1,.13-.26s0,0,0-.05l.26-.52c.16-.34.32-.66.48-1s.24-.5.37-.73l0-.11a0,0,0,0,0,0,0h0c0-.07.07-.14.1-.2l.09-.19h0a.6.6,0,0,0,.06-.11l.05-.1.08-.17c.09-.16.13-.25.13-.25l.5-1a.66.66,0,0,0-.47-.93l-.47-.1-.09,0-12.47-2.56a.66.66,0,0,1-.52-.73c1.1-9.33,18.45-36,23.25-43.24l0,0,.72-1.08A.66.66,0,0,0,1029.67,1111ZM618.84,1226.6l1.32-.32h0c6.14-1.41,13.07-2.39,19.25-1.72a2.77,2.77,0,0,1,1.49.66l7,6a2.85,2.85,0,0,0,1.23.61l11,2.31a2.82,2.82,0,0,1,1.43.79l9,9.36a2.78,2.78,0,0,0,2.83.73l10.67-3.35a2.87,2.87,0,0,1,1.51,0l13.53,3.44,5.41,1.37,6.84,1.74-6.85-1.4-5.5-1.13-14.46-3s-12.13,3.76-13.25,4-9.2-8.93-11-10.9a1,1,0,0,0-.74-.34c-3.08,0-13.1-3.79-13.1-3.79l-7.78-5.8c-2.4-.7-11.67.7-19.67,2.13l-.41.07c-6.59,1.19-12.2,2.37-12.2,2.37A115.82,115.82,0,0,1,618.84,1226.6Zm-230,2.13a2.29,2.29,0,0,0-1.18.72,11.93,11.93,0,0,1,3.4-3.71,1.08,1.08,0,0,0,.23-1.47c-.3-.45-.67-1.09-1.09-1.88l-.51-1,0-.05-.2-.4c-.07-.14-.15-.28-.22-.43l-.48-1-.6-1.23c-.13-.27-.27-.54-.4-.82l-.53-1.11c-.18-.38-.37-.77-.55-1.17-.5-1.06-1-2.17-1.55-3.32l-.8-1.75c-.27-.59-.55-1.19-.82-1.8l0-.1-.78-1.74-.24-.53c-.13-.31-.27-.61-.41-.92l-2.26-5.11c-.28-.62-.55-1.24-.82-1.85l-1.82-4.16-.52-1.2-.36-.84-.36-.83c-.12-.27-.24-.54-.35-.81-.24-.53-.46-1-.68-1.56l-.63-1.47-.52-1.2-.24-.56c-.4-.93-.75-1.76-1.06-2.47-.11-.28-.22-.53-.32-.77-.39-.9-.67-1.55-.8-1.87l.49,1c.08.18.17.36.26.54l.84,1.72.3.61c.21.41.41.83.62,1.26l.65,1.33c.11.21.21.42.31.63l.65,1.3,1.09,2.2.75,1.51c1.28,2.54,2.64,5.22,4,7.91.28.54.55,1.08.83,1.61.48.93,1,1.85,1.45,2.77l.65,1.24c1.27,2.38,2.52,4.7,3.73,6.88l.8,1.42.79,1.38.77,1.32c.5.86,1,1.68,1.46,2.45l.7,1.12c.23.36.45.71.67,1l.48.72q.56.83,1.05,1.5a2.37,2.37,0,0,1-1.32,3.71l-1,.24-1.85.48Zm1.78-61.5a2.36,2.36,0,0,1-1.33,3.74L372,1175.16a72.09,72.09,0,0,0,14.73-6.32.61.61,0,0,0,.18-.9c-3.81-5.12-22.08-48.43-23.78-52.48C368.1,1126.46,381.82,1155.92,390.63,1167.23ZM213.77,1212.7c-3.93-6.81-12.6-27.4-15.5-34.37.7,1.46,11.87,24.87,16.64,30C214.52,1209.85,214.13,1211.3,213.77,1212.7Zm2-47.78a176.55,176.55,0,0,1-9.47-17.2c-6.39-12.72-13.24-27.78-15.94-33.8.85,1.65,10,19.57,17.6,32.68,3.95,6.86,7.44,12.4,9.06,13.62C216.53,1161.92,216.11,1163.49,215.74,1164.92ZM414.32,1286.4,386.47,1292l.53-.12.48-.11.51-.11c5.3-1.25,17.18-4.17,21.71-6.47,1.22-.83,1.61-1.65.72-2.43-7.1-2.29-21-44.94-21.88-47.58,4.35,10.43,14.43,32.74,27.12,47.36A2.38,2.38,0,0,1,414.32,1286.4Zm685.51-217.13-.45.11a.55.55,0,0,1-.38.3l-4.49,1.2a.66.66,0,0,0-.37,1l2.81,4C1096.72,1075.4,1097.94,1072.79,1099.83,1069.27Z"/><path class="cls-7" d="M625.07,1215.48v.12a7.07,7.07,0,0,1-.86,3.24l-4,7.44h0l-1.32.32a115.82,115.82,0,0,0-12.37,3.82s5.61-1.18,12.2-2.37l.41-.07-.44.64-10.74,15.51a7,7,0,0,1-6.38,3l-55.43-4.58a7,7,0,0,1-2.24-.57l-35.05-15.35a7,7,0,0,1-4.23-6.46v-12.72a7,7,0,0,1,4.82-6.69l5.88-2a7,7,0,0,0,3.26-2.27l4.23-5.25a7.06,7.06,0,0,1,5.49-2.63h41.3a7.06,7.06,0,0,1,5.45,2.58l6.08,7.4a7.11,7.11,0,0,0,3.95,2.41l34.49,7.53a7.05,7.05,0,0,1,5.55,6.9Z"/><path class="cls-8" d="M840.33,1231.28l-7.08,22a9.36,9.36,0,0,1-7.2,6.33l-42.14,7.79-2.65.49-5.5,1-8.07,1.49-1.53.28-13,2.4-2.82.52-5,.92-3.45.64-.34.06a9.31,9.31,0,0,1-4.35-.4l-3.15-1.06-29.31-9.91a9.33,9.33,0,0,1-5.77-5.62,9.18,9.18,0,0,1-.57-3.81l.51-8.14q0-.32.06-.63l5.5,1.13,6.85,1.4-6.84-1.74-5.41-1.37a9.33,9.33,0,0,1,7.2-7.35l6.31-1.36a9.26,9.26,0,0,1,4.73.21l10.45,3.23a9.34,9.34,0,0,0,7.33-.77l30.2-16.91A9.31,9.31,0,0,1,771,1221c9.36,1.12,38.75,4,57.52-1.53a9.23,9.23,0,0,1,3.18-.38l.61,0a9.18,9.18,0,0,1,7.17,4.56A9.36,9.36,0,0,1,840.33,1231.28Z"/><path class="cls-9" d="M704.54,1246.41l-5.41-1.37-13.53-3.44a2.87,2.87,0,0,0-1.51,0L673.42,1245a2.78,2.78,0,0,1-2.83-.73l-9-9.36a2.82,2.82,0,0,0-1.43-.79l-11-2.31a2.85,2.85,0,0,1-1.23-.61l-7-6a2.77,2.77,0,0,0-1.49-.66c-6.18-.67-13.11.31-19.25,1.72h0l-1.32.32a15.36,15.36,0,0,1,2.47-6.14l1.62-2.36a15.52,15.52,0,0,1,2.14-2.5,15.24,15.24,0,0,1,6.21-3.55l17.72-5.17a7,7,0,0,1,.79-.2,15.23,15.23,0,0,1,7,0,14.51,14.51,0,0,1,2.91,1l3.78,1.74a15,15,0,0,0,6.88,1.32c1.24,0,2.48.17,2.93,1.06.67,1.35,3.64,5.55,5.47,8.77a15.21,15.21,0,0,0,6.18,6l11,5.81a15.3,15.3,0,0,1,5.57,5l.36.52a14.65,14.65,0,0,1,.85,1.41A15.14,15.14,0,0,1,704.54,1246.41Z"/><path class="cls-5" d="M704.53,1246.75a15.29,15.29,0,0,1-5.5,11.45,15.08,15.08,0,0,1-2.41,1.65,15.28,15.28,0,0,1-7.4,1.91,14.46,14.46,0,0,1-1.85-.11l-40.91-5-.51-.07a15.19,15.19,0,0,1-7.63-3.52L624,1240.73a15.3,15.3,0,0,1-5.32-12.11,5.44,5.44,0,0,1,0-.57l.41-.07c8-1.43,17.27-2.83,19.67-2.13l7.78,5.8s10,3.82,13.1,3.79a1,1,0,0,1,.74.34c1.75,2,10,11.14,11,10.9s13.25-4,13.25-4l14.46,3Z"/><path class="cls-9" d="M1029.67,1111l-3.05-1a.67.67,0,0,1-.46-.64c0-.29,0-.6.1-.92h-.59a3.38,3.38,0,0,0-.94.17c-5.87,1.93-.88-9-23.28-4.12-20.5,4.48-34.26,58.64-37,70.13a2.77,2.77,0,0,1-2.7,2.13h-4.35a2.76,2.76,0,0,1-2.55-1.69c-5.69-13.66-13.89-15.53-17-15.73a2.74,2.74,0,0,1-2-1.09c-1.2-1.52-4-4.14-9.56-4.69-7-.71-16.14,16.06-18.09,19.82a2.81,2.81,0,0,1-1.13,1.16l-10.61,5.77a2.7,2.7,0,0,0-1.15,1.19c-7.34,14.58-20.95,26.65-24,29.28a2.76,2.76,0,0,1-1.44.63c-11.59,1.52-19.76,9.08-22.61,12.1a2.76,2.76,0,0,1-2.8.75l-2.74-.82a2.71,2.71,0,0,0-1.69,0l-.49.17c-19.29,6.71-28.84,22.62-31.42,27.58l-.09.17a2.78,2.78,0,0,1-2.18,1.5l-4.25.45h0l-.7.08-6.55.69h0l-1.82.19-4.71.51h0l-1.55.16-7.4.79-1.95.2-6.06.65-2.3.24a2.8,2.8,0,0,1-.71,0,3,3,0,0,1-1.09-.41l-1.41-.87c-17.12-10.11-34.42-5.15-38.16-3.87a2.8,2.8,0,0,1-1.57.06l-14.12-3.59h0l-6.85-1.4-5.5-1.13-14.46-3s-12.13,3.76-13.25,4-9.2-8.93-11-10.9a1,1,0,0,0-.74-.34c-3.08,0-13.1-3.79-13.1-3.79l-7.78-5.8c-2.4-.7-11.67.7-19.67,2.13l-.41.07c-6.59,1.19-12.2,2.37-12.2,2.37-1.05.39-1.87.71-2.41.93a2.69,2.69,0,0,1-1.51.16l-29.48-5.16a2.77,2.77,0,0,0-2.39.73l-3.41,3.26a2.78,2.78,0,0,1-3.1.5l-17-8a2.77,2.77,0,0,0-2.79.25l-4,2.87a2.79,2.79,0,0,1-3.07.09l-9-5.58a2.77,2.77,0,0,0-3,.09l-1.75,1.22a2.77,2.77,0,0,1-3.67-.43c-2.7-3.06-8.42-9.55-14.67-16.68-7.42-8.51-15.58-17.92-20.22-23.53a40,40,0,0,0-22.58-13.52,2.77,2.77,0,0,0-2,.39,69.58,69.58,0,0,1-10.32,5.61c-4.93,2.06-21.2-10.31-25.39-13.59a2.72,2.72,0,0,0-2.74-.39c-2,.86-4,3-5.35,4.75a2.8,2.8,0,0,1-2.21,1.09,2.73,2.73,0,0,1-2.2-1.11,2.79,2.79,0,0,0-3.43-.82l-31.07,15.16a2.77,2.77,0,0,1-2.79-.21l-3.95-2.71-2.57-1.77a2.77,2.77,0,0,0-1.29-.47l-126.2-13a2.77,2.77,0,0,1-1.35-.52L221,1146.56l-4.7-3.43a2.77,2.77,0,0,0-3.19-.05l-5.18,3.52c3.95,6.86,7.44,12.4,9.06,13.62-.46,1.7-.88,3.27-1.25,4.7a176.55,176.55,0,0,1-9.47-17.2l-35.3,24a2.79,2.79,0,0,1-1.22.46l-49.94,6.11,124.43,94.39-20.15,5.57,15.27,20.36c10.67.77,21.11,1.54,31.17,2.31q6.21.47,12.2,1h0l5.23.42c6.92.56,13.59,1.12,20,1.67l4,.35,2.09.19,2.75.24,3.21.3,2.17.2,2.73.26,3.56.34,3.27.32,1.83.18,3.58.37,5.13.54.86.09,1,.11,2.44.27c3.12.35,6,.7,8.77,1l1.78.23,2.94.39c1.61.22,3.12.44,4.54.65l2.13.34,1,.16c1,.17,1.92.33,2.78.5.57.1,1.12.21,1.64.32,1.17.23,2.19.47,3.06.7l.42.12.13,0c.24.06.46.13.67.2a9.32,9.32,0,0,1,1.61.63,3.43,3.43,0,0,0,1.63.41h65.29a3.51,3.51,0,0,1,2.12.71c4.41,3.37,23.9,17.92,43.64,26.72a102.34,102.34,0,0,0,10.89,4.19l.64,1.06a.87.87,0,0,0,1.55-.11l.11-.26c1.19.34,2.37.63,3.53.89a3.42,3.42,0,0,1,1.83,1.05l13.36,14.6,0,0A3.48,3.48,0,0,0,528,1362l1.29-1.74,6.48-1.91h0l11.45,6.59a3.54,3.54,0,0,0,1.74.46h6.61a3.49,3.49,0,0,1,2.8,1.41l7.83,10.55a3.48,3.48,0,0,0,3.88,1.23,24.22,24.22,0,0,0,12.66-9.3,3.45,3.45,0,0,1,2.19-1.44c2.67-.54,8.1-1.45,9.58-.27,0,0,27,9.3,28.68,16.66a3.4,3.4,0,0,0,1.77,2.23c3.15,1.62,9.68,5.16,12.9,8.17a3.47,3.47,0,0,0,4,.5l7.53-4a3.46,3.46,0,0,1,2.44-.32c2.93.71,10.2,3.19,17.51,11.27a3.43,3.43,0,0,0,4.81.34l0,0a3.57,3.57,0,0,1,3.48-1,12.06,12.06,0,0,1,2.75,1.27,3.38,3.38,0,0,0,1.7.48l21.26.43h0l3.27-1.45a17.19,17.19,0,0,1,7.39-3.27h0l7-3.1h0l3.41-3.19a3.51,3.51,0,0,1,2.67-.93c.76.07,1.75.14,2.87.16l12.08-5.36c1.59-3.07,7.17-9.72,26.7-18.61a3.64,3.64,0,0,1,1.3-.31l4.8-.22a3.5,3.5,0,0,0,2.58-1.33c1.21-1.55,3.3-4,4.47-3.89a25.65,25.65,0,0,1,4.93,1.46,3.44,3.44,0,0,0,3-.3,20,20,0,0,1,11.31-3.08c22.05-9.81,44.63-19.88,67.48-30.08l6-2.67h0l1.79-.8,21.41-9.56,1.69-.75,26.88-12c19.09-8.53,38.21-17.08,57.2-25.59l3.28-1.47c.75-1.27,1.51-2.58,2.27-3.91.67-1.16,1.34-2.34,2-3.52l0,0c1.34-2.35,2.66-4.71,3.91-7,.94-1.7,1.85-3.33,2.69-4.86.14-.25.28-.5.41-.75l1.9-3.46.34-.62c.13-.26.27-.51.4-.75s.35-.65.52-.95l.34-.64.38-.68c.08-.17.17-.34.26-.49l.06-.12,0-.1.46-.86a.66.66,0,0,0-.42-1l-7.69-1.92a.65.65,0,0,1-.35-1c5.24-6.71,11.59-18.38,15.89-26.77l.71-1.38.62-1.24c.66-1.31,1.25-2.49,1.75-3.51l.24-.49c.08-.15.15-.31.22-.45s.15-.29.21-.43l.47-1,.07-.16.06-.13c.1-.19.18-.36.25-.51a.65.65,0,0,0-.48-.92l-.82-.15h0l-16.48-3a.66.66,0,0,1-.39-1.06l.24-.3h0a.76.76,0,0,1,.08-.11q.33-.43.72-1l.27-.4.29-.43.3-.46.64-1,1.09-1.77.64-1.1c.13-.21.25-.42.37-.63.29-.49.58-1,.88-1.52l1.05-1.86.4-.72c.13-.24.27-.48.4-.73l.15-.26c.14-.27.29-.53.44-.8,0-.11.12-.22.18-.33l.63-1.16.42-.78.66-1.23.09-.16c.24-.47.5-.94.74-1.41.15-.26.29-.53.42-.79s.28-.53.42-.79l.64-1.22c.07-.12.13-.25.19-.37l.54-1,.29-.57.41-.79.25-.47c0-.11.11-.21.16-.32l.41-.78.26-.5c.05-.1.1-.19.14-.29l.4-.77c.06-.13.13-.26.2-.38l.19-.39.27-.52c.17-.33.34-.66.5-1l.38-.74,1.8-3.55.61-1.22.05-.1.32-.64c.18-.34.35-.68.5-1a1.09,1.09,0,0,0,.08-.15l.24-.49.06-.11,0-.06c.13-.27.27-.53.4-.79a2.1,2.1,0,0,1,.13-.26v0l0,0,.26-.52c.16-.34.32-.66.48-1s.24-.5.37-.73l0-.11a0,0,0,0,0,0,0h0c0-.07.07-.14.1-.2l.09-.19h0a.6.6,0,0,0,.06-.11l.05-.1.08-.17c.09-.16.13-.25.13-.25l.5-1a.66.66,0,0,0-.47-.93l-.47-.1-.09,0-12.47-2.56a.66.66,0,0,1-.52-.73c1.1-9.33,18.45-36,23.25-43.24l0,0,.72-1.08A.66.66,0,0,0,1029.67,1111ZM213.77,1212.7c-3.93-6.81-12.6-27.4-15.5-34.37.7,1.46,11.87,24.87,16.64,30C214.52,1209.85,214.13,1211.3,213.77,1212.7Zm158-31.29c.08.18.17.36.26.54l.84,1.72.3.61c.21.41.41.83.62,1.26l.65,1.33c.11.21.21.42.31.63l.65,1.3,1.09,2.2.75,1.51c1.28,2.54,2.64,5.22,4,7.91.28.54.55,1.08.83,1.61.48.93,1,1.85,1.45,2.77l.65,1.24c1.27,2.38,2.52,4.7,3.73,6.88l.8,1.42.79,1.38.77,1.32c.5.86,1,1.68,1.46,2.45l.7,1.12c.23.36.45.71.67,1l.48.72q.56.83,1.05,1.5a2.37,2.37,0,0,1-1.32,3.71l-1,.24-1.85.48-1.7.43a2.29,2.29,0,0,0-1.18.72,11.93,11.93,0,0,1,3.4-3.71,1.08,1.08,0,0,0,.23-1.47c-.3-.45-.67-1.09-1.09-1.88l-.51-1,0-.05-.2-.4c-.07-.14-.15-.28-.22-.43l-.48-1-.6-1.23c-.13-.27-.27-.54-.4-.82l-.53-1.11c-.18-.38-.37-.77-.55-1.17-.5-1.06-1-2.17-1.55-3.32l-.8-1.75c-.27-.59-.55-1.19-.82-1.8l0-.1-.78-1.74-.24-.53c-.13-.31-.27-.61-.41-.92l-2.26-5.11c-.28-.62-.55-1.24-.82-1.85l-1.82-4.16-.52-1.2-.36-.84-.36-.83c-.12-.27-.24-.54-.35-.81-.24-.53-.46-1-.68-1.56l-.63-1.47-.52-1.2-.24-.56c-.4-.93-.75-1.76-1.06-2.47-.11-.28-.22-.53-.32-.77-.39-.9-.67-1.55-.8-1.87Zm42.53,105L386.47,1292l.53-.12.48-.11.51-.11c5.3-1.25,17.18-4.17,21.71-6.47,1.22-.83,1.61-1.65.72-2.43-7.1-2.29-21-44.94-21.88-47.58,4.35,10.43,14.43,32.74,27.12,47.36A2.38,2.38,0,0,1,414.32,1286.4ZM1017,1167.06l-.1.22c.08-.16.15-.32.23-.47l.06-.14C1017.1,1166.8,1017,1166.93,1017,1167.06Zm-.29.61a1.08,1.08,0,0,0-.08.19l.09-.19.18-.39C1016.81,1167.41,1016.75,1167.54,1016.68,1167.67Zm-6.28,13.1c-.12.27-.25.53-.38.8.15-.29.29-.59.43-.88l.36-.78C1010.68,1180.2,1010.54,1180.48,1010.4,1180.77Zm-2.46,5.15-.4.85c.12-.26.25-.51.37-.77l.42-.88Z"/><path class="cls-10" d="M711.38,1248.15l-6.85-1.4-5.5-1.13-14.46-3s-12.13,3.76-13.25,4-9.2-8.93-11-10.9a1,1,0,0,0-.74-.34c-3.08,0-13.1-3.79-13.1-3.79l-7.78-5.8c-2.4-.7-11.67.7-19.67,2.13l-.41.07c-6.59,1.19-12.2,2.37-12.2,2.37a115.82,115.82,0,0,1,12.37-3.82l1.32-.32h0c6.14-1.41,13.07-2.39,19.25-1.72a2.77,2.77,0,0,1,1.49.66l7,6a2.85,2.85,0,0,0,1.23.61l11,2.31a2.82,2.82,0,0,1,1.43.79l9,9.36a2.78,2.78,0,0,0,2.83.73l10.67-3.35a2.87,2.87,0,0,1,1.51,0l13.53,3.44,5.41,1.37Z"/><path class="cls-11" d="M992,1267.07l-3.08-5.06a.25.25,0,0,0-.42,0l-2.9,4a.25.25,0,0,1-.43,0l-3.58-7a.26.26,0,0,0-.43,0l-4,5.16a.26.26,0,0,1-.41,0l-3.94-5.2a.25.25,0,0,0-.41,0l-2.71,3.69a.26.26,0,0,1-.44,0l-3.79-7.72a.25.25,0,0,0-.43,0l-4.07,5a.26.26,0,0,1-.42,0l-3-4.85a.26.26,0,0,0-.45,0l-2.18,4.53a.25.25,0,0,1-.44,0l-3.34-4.76a.26.26,0,0,0-.38,0l-2.93,2.58a.25.25,0,0,1-.38,0l-3.51-5.31a.26.26,0,0,0-.41,0l-3,3.4a.25.25,0,0,1-.36,0l-3.71-3.53a.26.26,0,0,0-.33,0l-3,2.09a.26.26,0,0,1-.37-.09l-3.44-6.69a.25.25,0,0,0-.43,0l-3.66,5a.25.25,0,0,1-.43,0L920,1241.75a.26.26,0,0,0-.47,0l-3.26,8.45a.25.25,0,0,1-.45,0l-4.86-7.92a.25.25,0,0,0-.43,0l-4.87,7.21a.25.25,0,0,1-.44,0l-3.63-7.78a.26.26,0,0,0-.47,0L897,1251a.26.26,0,0,1-.48,0l-3.36-12.22a.25.25,0,0,0-.48,0l-4.16,10.6a.26.26,0,0,1-.47,0l-4.78-10.11a.26.26,0,0,0-.45,0l-4.67,7.72a.25.25,0,0,1-.44,0l-3.42-6.32a.26.26,0,0,0-.45,0l-3.28,5.77a.25.25,0,0,1-.45,0l-3.6-8.61a.26.26,0,0,0-.48,0l-3.27,9.2a.26.26,0,0,1-.45.07l-3.36-4.66a.26.26,0,0,0-.42,0l-3.09,4.47a.26.26,0,0,1-.45,0l-4-9.1a.25.25,0,0,0-.47,0l-3.54,9.11a.26.26,0,0,1-.46,0l-2.09-3.62a.26.26,0,0,0-.44,0l-3.19,5.08a.25.25,0,0,1-.44,0l-2.28-4.73a.26.26,0,0,0-.44,0l-3.83,5.58a.26.26,0,0,1-.45-.05l-4.24-10.47a.25.25,0,0,0-.47,0l-4.77,11.05a.26.26,0,0,1-.47,0L820,1241.4a.25.25,0,0,0-.48,0l-2.22,8.17a.26.26,0,0,1-.47.06l-3.42-6a.25.25,0,0,0-.44,0l-4.19,8a.26.26,0,0,1-.46,0l-3.92-9a.25.25,0,0,0-.48,0l-2.38,10.83a.26.26,0,0,1-.46.1l-3.39-4.75a.26.26,0,0,0-.43,0l-3.72,6.55a.26.26,0,0,1-.45,0l-2.8-5.77a.25.25,0,0,0-.46,0l-2.55,6.35a.25.25,0,0,1-.46,0l-4.52-9a.26.26,0,0,0-.47,0l-3.8,10.87a.25.25,0,0,1-.48,0l-3.84-12.2a.25.25,0,0,0-.49,0l-3.2,14.38a.26.26,0,0,1-.48.06l-3.09-6.28a.26.26,0,0,0-.47,0l-3.82,8.64a.26.26,0,0,1-.46,0l-3.17-5.48a.26.26,0,0,0-.45,0l-3.78,7.55a.25.25,0,0,1-.46,0l-3.19-8.7a.26.26,0,0,0-.49,0l-2.9,9.94a.26.26,0,0,1-.45.08l-3.49-4.68a.25.25,0,0,0-.43,0l-2.71,6.19a.25.25,0,0,1-.44,0l-2.31-3.51a.26.26,0,0,0-.46.07l-2.69,8.77a.26.26,0,0,1-.42.11l-3.31-3.23a.26.26,0,0,0-.43.14l-1,5.79a.26.26,0,0,0,.11.25l60.38,42.25a.27.27,0,0,0,.18.05L968.11,1300a.29.29,0,0,0,.18-.11l23.66-32.5A.26.26,0,0,0,992,1267.07Z"/><path class="cls-12" d="M1154.73,1294.06a.66.66,0,0,0-.79-.64l-28.15,6.13a.66.66,0,0,1-.28,0l-6.06-1.32a.82.82,0,0,0-.27,0l-18.3,3.58c26.38-2.14,47.86-3.58,53.9-3.1Zm-62.81,8.47,1.92.57a.69.69,0,0,0,.32,0l6.72-1.31Q1096.49,1302.15,1091.92,1302.53Zm-17.64-5.27a.66.66,0,0,0-.85.63v6.2c6.27-.54,12.47-1.07,18.49-1.56Zm-14.32.92-21.61,4.74a.82.82,0,0,1-.27,0l-35.12-7h0l-23.9-4.77a.66.66,0,0,1-.35-1.09c1.68-1.91,4.82-6.92,8.3-12.85.75-1.27,1.51-2.58,2.27-3.91l-1.41,0a.52.52,0,0,1-.21,0,.64.64,0,0,1-.37-.28l-4.67-7.57a.67.67,0,0,0-1.18.08l-7,15.75a.67.67,0,0,1-1.25,0L969.32,1270a.66.66,0,0,0-1.24,0l-3.93,9.55a.67.67,0,0,1-1.28-.16l-1.38-9.79a.67.67,0,0,0-1.29-.12l-4.39,13.16a.66.66,0,0,1-1.28-.07l-1.56-7.44a.67.67,0,0,0-1.2-.26l-6.57,9.12a.66.66,0,0,1-1.16-.16l-4.1-10.66a.67.67,0,0,0-1.27.07l-3,10.87a.67.67,0,0,1-1.24.13l-5.66-11.11a.67.67,0,0,0-1.22.06l-4.72,12.25a.67.67,0,0,1-1.22.06l-6.8-13.39a.67.67,0,0,0-1.22.07l-5.44,14.8a.67.67,0,0,1-1.26,0l-3.23-8.76a.67.67,0,0,0-1.25,0l-4.87,12.91a.67.67,0,0,1-1.23,0l-5.3-11.65a.67.67,0,0,0-1.22,0l-5.33,12.8a.67.67,0,0,1-1.25,0l-3-8.54a.67.67,0,0,0-1.16-.19l-7.48,9.46a.67.67,0,0,1-1.15-.18L864.87,1278a.67.67,0,0,0-1.23,0l-5.16,11.14a.67.67,0,0,1-1.25-.11l-3-10.9A.67.67,0,0,0,853,1278l-4.37,10.15a.67.67,0,0,1-1.24,0l-4.12-11.54a.67.67,0,0,0-1.25,0l-4.82,11.73a.66.66,0,0,1-1.22,0l-5.18-11.43a.66.66,0,0,0-1.17-.07l-6.09,9.77a.66.66,0,0,1-1.16-.07l-4.86-10.14a.67.67,0,0,0-1.09-.16l-7.56,8.23a.67.67,0,0,1-1.12-.22l-2.06-5.55-.52-1.41a.67.67,0,0,0-1.19-.13l-1.62,2.53h0l-1.58,2.47a.67.67,0,0,1-1.21-.19l-.36-1.35-2.59-9.63a.67.67,0,0,0-1.17-.24l-6.35,8a.66.66,0,0,1-1.15-.19l-4-11.15-.53-1.45a.67.67,0,0,0-1.24,0l-.88,2-2.73,6.18a.67.67,0,0,1-1.25-.08l-1.52-5.08-2.23-7.42a.67.67,0,0,0-1.23-.11l-4.61,9-.26.51a.67.67,0,0,1-1.22-.08l-.05-.15-2.13-6a.66.66,0,0,0-1.27.06l-1.45,5.77a.67.67,0,0,1-1.22.18l-3.17-5.29a.67.67,0,0,0-1.2.14l-2.53,7.58-.72,2.17a.67.67,0,0,1-1.23.09l-2.82-5.64a.67.67,0,0,0-1.22.07l-1.8,4.75-1.48,3.92a.67.67,0,0,1-1.26,0l-1-3.19-3-9.09h0l-.51-1.55a.66.66,0,0,0-.86-.42.62.62,0,0,0-.4.39l0,0-.16.54-.06.21-2.51,8.43-1.43,4.82-.53,1.78a.66.66,0,0,1-1.24.09l-3.63-7.83a.67.67,0,0,0-1.22,0l-3.74,9.05a.67.67,0,0,1-1.25-.05l-2.37-7.28a.67.67,0,0,0-1.23-.09l-3.74,7.47a.66.66,0,0,1-1.24-.14l-3.44-13.95a.67.67,0,0,0-1.29,0l-4.08,14.81a.32.32,0,0,1-.61,0l-5.64-13.87a.32.32,0,0,0-.61,0l-4.14,12.19a.32.32,0,0,1-.62,0l-4.69-15.7a.32.32,0,0,0-.62,0L681,1282.61a.33.33,0,0,1-.6.05l-5.83-11.26a1.26,1.26,0,0,0-2.33.23l-1.32,4.7a1.26,1.26,0,0,1-2.43,0l-4-14.69a.14.14,0,0,0-.26,0l-4.73,14.19a.14.14,0,0,1-.26,0L655,1261.52a.14.14,0,0,0-.25,0l-5.47,11.19a.14.14,0,0,1-.26,0l-2.94-15.94a.13.13,0,0,0-.13-.11.15.15,0,0,0-.14.12l-2.41,15.93a.14.14,0,0,1-.27,0l-4.71-18.6a.14.14,0,0,0-.27,0l-5.57,22.28a.13.13,0,0,1-.25,0l-3.44-8.34a.14.14,0,0,0-.24,0l-6,9.8a.13.13,0,0,1-.24,0L617,1259.22a.14.14,0,0,0-.26,0l-6.2,17.41a.59.59,0,0,1-1.1,0l-3.72-8.87a.59.59,0,0,0-1-.09l-4.32,7a.59.59,0,0,1-1-.1l-3.6-9.32a.59.59,0,0,0-1.06-.07l-3.23,5.88a.59.59,0,0,1-1.07-.09l-7.14-21.43a.59.59,0,0,0-1.13,0l-5.89,21.06a.59.59,0,0,1-1.11.07l-5.4-12.76a.59.59,0,0,0-1.08,0l-5.78,13.11a.58.58,0,0,1-1.07,0l-5.61-12.34a.59.59,0,0,0-1-.08l-6,9.19a.59.59,0,0,1-1,0l-6.88-10.1a.59.59,0,0,0-1,0l-5.49,9.66a.59.59,0,0,1-1.07-.09l-5-14a.58.58,0,0,0-1-.13l-7.51,11.37a.59.59,0,0,1-1-.06l-8.05-15.39a.6.6,0,0,0-1-.06l-7,10.22a.58.58,0,0,1-1-.09l-6.91-14.76a.6.6,0,0,0-.89-.23l-8.08,6a.59.59,0,0,1-.88-.21l-7.49-15.22a.59.59,0,0,0-1-.15l-7.52,8a.59.59,0,0,1-1-.16l-7.16-15.63a.59.59,0,0,0-1-.14l-9.25,11a.59.59,0,0,1-1-.21l-7.32-23.87a.59.59,0,0,0-1.12,0l-7.1,20.59a.58.58,0,0,1-1.09,0l-6.75-15.52a.59.59,0,0,0-1.09,0l-7,17.33a.59.59,0,0,1-1,.16l-9.32-10.71a.59.59,0,0,0-1,.15l-6.05,13.48a.59.59,0,0,1-1,.09l-7.67-11.39-1.85.48-1.91,4.16a.61.61,0,0,1-.38.32l-.61.17-143.41,39.68-20.15,5.57,15.27,20.36c10.67.77,21.11,1.54,31.17,2.31q6.21.47,12.2,1h0l5.23.42c6.92.56,13.59,1.12,20,1.67l4,.35,2.09.19,2.75.24,3.21.3,2.17.2,2.73.26,3.56.34,3.27.32,1.83.18,3.58.37,5.13.54.86.09,1,.11,2.44.27c3.12.35,6,.7,8.77,1l1.78.23,2.94.39c1.61.22,3.12.44,4.54.65l2.13.34,1,.16c1,.17,1.92.33,2.78.5.57.1,1.12.21,1.64.32,1.17.23,2.19.47,3.06.7l.42.12.13,0c.24.06.46.13.67.2a9.32,9.32,0,0,1,1.61.63,3.43,3.43,0,0,0,1.63.41h65.29a3.51,3.51,0,0,1,2.12.71c4.41,3.37,23.9,17.92,43.64,26.72a102.34,102.34,0,0,0,10.89,4.19l.64,1.06a.87.87,0,0,0,1.55-.11l.11-.26c1.19.34,2.37.63,3.53.89a3.42,3.42,0,0,1,1.83,1.05l13.36,14.6,0,0A3.48,3.48,0,0,0,528,1362l1.29-1.74,6.48-1.91h0l11.45,6.59a3.54,3.54,0,0,0,1.74.46h6.61a3.49,3.49,0,0,1,2.8,1.41l7.83,10.55a3.48,3.48,0,0,0,3.88,1.23,24.22,24.22,0,0,0,12.66-9.3,3.45,3.45,0,0,1,2.19-1.44c2.67-.54,8.1-1.45,9.58-.27,0,0,27,9.3,28.68,16.66a3.4,3.4,0,0,0,1.77,2.23c3.15,1.62,9.68,5.16,12.9,8.17a3.47,3.47,0,0,0,4,.5l7.53-4a3.46,3.46,0,0,1,2.44-.32c2.93.71,10.2,3.19,17.51,11.27a3.43,3.43,0,0,0,4.81.34l0,0a3.57,3.57,0,0,1,3.48-1,12.06,12.06,0,0,1,2.75,1.27,3.38,3.38,0,0,0,1.7.48l21.26.43h.12a3.54,3.54,0,0,0,2.22-.74c.26-.21.58-.45.94-.71a17.19,17.19,0,0,1,7.39-3.27h0a8.61,8.61,0,0,1,2,0,3.39,3.39,0,0,0,2.67-.92l2.29-2.15h0l3.41-3.19a3.51,3.51,0,0,1,2.67-.93c.76.07,1.75.14,2.87.16,3.64.1,8.55-.22,10.67-2.34a3.32,3.32,0,0,0,.84-1.55,6.37,6.37,0,0,1,.57-1.47c1.59-3.07,7.17-9.72,26.7-18.61a3.64,3.64,0,0,1,1.3-.31l4.8-.22a3.5,3.5,0,0,0,2.58-1.33c1.21-1.55,3.3-4,4.47-3.89a25.65,25.65,0,0,1,4.93,1.46,3.44,3.44,0,0,0,3-.3,20,20,0,0,1,11.31-3.08,16.42,16.42,0,0,1,5.31,1.16,3.39,3.39,0,0,0,2.43,0c5.37-2,25.9-9.61,34-14.38a3.46,3.46,0,0,1,2.06-.46c2.23.2,7.27.5,10.09-.51,0,0,28.93-9.64,50.35-18.21,2.54-1,5-2,7.23-3,2-.86,3.94-1.71,5.67-2.51a47.33,47.33,0,0,0,8.45-4.68,3.56,3.56,0,0,1,1.72-.78l2-.28,2.18-.31c2.6-.35,6-.8,9.57-1.25l4.87-.6c8.61-1,17.43-1.87,20.43-1.5,3.28.4,48-3.76,93-7.69l.06-6.36A.65.65,0,0,0,1060,1298.18ZM414.32,1286.4,386.47,1292l.53-.12.48-.11.51-.11c5.3-1.25,17.18-4.17,21.71-6.47,1.22-.83,1.61-1.65.72-2.43-7.1-2.29-21-44.94-21.88-47.58,4.35,10.43,14.43,32.74,27.12,47.36A2.38,2.38,0,0,1,414.32,1286.4Z"/><path class="cls-13" d="M501.59,1345a102.34,102.34,0,0,1-10.89-4.19l.16-.4,2.74-6a.88.88,0,0,1,1.54-.09Z"/><path class="cls-13" d="M905.54,1327.77c-21.42,8.57-50.35,18.21-50.35,18.21-2.82,1-7.86.71-10.09.51a3.46,3.46,0,0,0-2.06.46c-8.12,4.77-28.65,12.41-34,14.38a3.39,3.39,0,0,1-2.43,0,16.42,16.42,0,0,0-5.31-1.16,20,20,0,0,0-11.31,3.08,3.44,3.44,0,0,1-3,.3,25.65,25.65,0,0,0-4.93-1.46c-1.17-.09-3.26,2.34-4.47,3.89a3.5,3.5,0,0,1-2.58,1.33l-4.8.22a3.64,3.64,0,0,0-1.3.31c-19.53,8.89-25.11,15.54-26.7,18.61a6.37,6.37,0,0,0-.57,1.47,3.32,3.32,0,0,1-.84,1.55c-2.12,2.12-7,2.44-10.67,2.34-1.12,0-2.11-.09-2.87-.16a3.51,3.51,0,0,0-2.67.93l-3.41,3.19h0l-2.29,2.15a3.39,3.39,0,0,1-2.67.92,8.61,8.61,0,0,0-2,0h0a17.19,17.19,0,0,0-7.39,3.27c-.36.26-.68.5-.94.71a3.54,3.54,0,0,1-2.22.74h-.12l-21.26-.43a3.38,3.38,0,0,1-1.7-.48,12.06,12.06,0,0,0-2.75-1.27,3.57,3.57,0,0,0-3.48,1l0,0a3.43,3.43,0,0,1-4.81-.34c-7.31-8.08-14.58-10.56-17.51-11.27a3.46,3.46,0,0,0-2.44.32l-7.53,4a3.47,3.47,0,0,1-4-.5c-3.22-3-9.75-6.55-12.9-8.17a3.4,3.4,0,0,1-1.77-2.23c-1.66-7.36-28.68-16.66-28.68-16.66-1.48-1.18-6.91-.27-9.58.27a3.45,3.45,0,0,0-2.19,1.44,24.22,24.22,0,0,1-12.66,9.3,3.48,3.48,0,0,1-3.88-1.23l-7.83-10.55a3.49,3.49,0,0,0-2.8-1.41H549a3.54,3.54,0,0,1-1.74-.46l-11.45-6.59h0l-6.48,1.91L528,1362a3.48,3.48,0,0,1-5.37.28l0,0-13.36-14.6a3.42,3.42,0,0,0-1.83-1.05c-1.16-.26-2.34-.55-3.53-.89l4.52-10.92a.87.87,0,0,1,1.6,0l4.87,11a.87.87,0,0,0,1.58,0l7.62-16a.87.87,0,0,1,1.58,0l7.29,15.76a.87.87,0,0,0,1.61-.07l8.32-23.64a.86.86,0,0,1,1.64,0L551,1342a.87.87,0,0,0,1.62.1l5.53-12.2a.87.87,0,0,1,1.52-.11l7.42,11.55a.87.87,0,0,0,1.55-.17l4.59-12.76a.87.87,0,0,1,1.61-.05l3.66,8.47a.87.87,0,0,0,1.62,0l5.15-14.64a.87.87,0,0,1,1.61-.08l5.5,11.72a.87.87,0,0,0,1.59,0l6-14.87a.87.87,0,0,1,1.52-.17l6.73,9.7a.87.87,0,0,0,1.55-.27l6.61-23.76a.87.87,0,0,1,1.64-.11l7.46,17.8a.86.86,0,0,0,1.6,0l3.91-9.44a.87.87,0,0,1,1.57-.08L639.3,1325a.88.88,0,0,0,1.5.06l7.08-11a.87.87,0,0,1,1.55.18l3.39,9.59.77,2.17a.87.87,0,0,0,1.5.25l3.24-4,4.64-5.78a.86.86,0,0,1,1.41.08l2,3.3,6.15,9.94a.86.86,0,0,0,1.5,0l7.77-14.45,1.33-2.48a.87.87,0,0,1,1.52,0l.8,1.42,9.15,16.19a.86.86,0,0,0,1.5,0l6.08-10.56a.87.87,0,0,1,1.46-.07l8.63,12.21a.87.87,0,0,0,1.44,0l6.73-10.58a.87.87,0,0,1,1.53.12l4,9.46a.87.87,0,0,0,1.61,0l4.33-11.11a.87.87,0,0,1,1.58-.08l4.17,8.26a.87.87,0,0,0,1.59-.08l3.83-10a.87.87,0,0,1,1.6,0l3.6,7.88a.87.87,0,0,0,1.64-.18l4.09-18.75a.86.86,0,0,1,1.68,0l4.76,17.77a.87.87,0,0,0,1.67,0L765.8,1313a.87.87,0,0,1,1.62-.12l6.33,13.29a.87.87,0,0,0,1.56,0l5.27-10.24a.87.87,0,0,1,1.55,0l6,12a.87.87,0,0,0,1.6-.11l3.37-9.85.19-.55a.87.87,0,0,1,1.58-.14l.26.48,6.64,12.16a.86.86,0,0,0,1.56-.09l4.12-9.9a.86.86,0,0,1,1.57,0l5.42,10.73a.87.87,0,0,0,1.61-.15l4.53-15.33.26-.89a.87.87,0,0,1,1.66,0l.23.7,5.91,17.75a.87.87,0,0,0,1.64,0l4.15-10.62a.87.87,0,0,1,1.55-.13l6.82,11.44a.87.87,0,0,0,1.53-.08l4.64-10.09a.87.87,0,0,1,1.56,0l5.77,11a.87.87,0,0,0,1.61-.19l3.87-15.24a.86.86,0,0,1,1.62-.16l5.4,11.44,1.61,3.41a.86.86,0,0,0,1.57,0l2.79-6.07h0l.3-.66a.86.86,0,0,1,1.48-.16v0l5.06,6.76a.87.87,0,0,0,1.53-.28l2.07-7.3a.87.87,0,0,1,1.53-.28l4.22,5.65a.86.86,0,0,0,1.5-.2l5.5-13.91.21-.53a.86.86,0,0,1,1.48-.22.71.71,0,0,1,.1.14Z"/><path class="cls-13" d="M918.44,1322.28c-1.73.8-3.63,1.65-5.67,2.51l2.19-8.31a.87.87,0,0,1,1.67,0Z"/><path class="cls-13" d="M932.8,1316.23l-2.18.31.42-1a.87.87,0,0,1,1.64.15Z"/><path class="cls-13" d="M947.24,1314.38l-4.87.6,1.79-4.83a.87.87,0,0,1,1.64,0Z"/><path class="cls-10" d="M43.72,975.12l-4.55.92c1.82-.63,4.57-1.92,4.62-3.94.08-3-25.91-54.9-26.72-56.52,5.94,9.51,23.24,38.12,28.47,56.58A2.37,2.37,0,0,1,43.72,975.12Z"/><path class="cls-10" d="M414.32,1286.4,386.47,1292l.53-.12.48-.11.51-.11c5.3-1.25,17.18-4.17,21.71-6.47,1.22-.83,1.61-1.65.72-2.43-7.1-2.29-21-44.94-21.88-47.58,4.35,10.43,14.43,32.74,27.12,47.36A2.38,2.38,0,0,1,414.32,1286.4Z"/><path class="cls-10" d="M393.35,1227.58l-1,.24-1.85.48-1.7.43a2.29,2.29,0,0,0-1.18.72,11.93,11.93,0,0,1,3.4-3.71,1.08,1.08,0,0,0,.23-1.47c-3.82-5.8-19.11-41.76-20.06-44,5,10.25,17.36,35.4,23.43,43.6A2.37,2.37,0,0,1,393.35,1227.58Z"/><path class="cls-10" d="M389.3,1171,372,1175.16a72.09,72.09,0,0,0,14.73-6.32.61.61,0,0,0,.18-.9c-3.81-5.12-22.08-48.43-23.78-52.48,5,11,18.72,40.46,27.53,51.77A2.36,2.36,0,0,1,389.3,1171Z"/><path class="cls-10" d="M377.63,1107.1l-9,2.26c3.43-1,7.55-2.65,8.12-4.63.24-.84-1.21-4.54-3.53-9.65-7.08-15.51-22.3-44.06-22.91-45.21,5.65,7.43,18.37,25.53,26.66,47.6q1.23,3.26,2.31,6.62A2.37,2.37,0,0,1,377.63,1107.1Z"/><path class="cls-10" d="M351,1045l-.37.13a2.36,2.36,0,0,0-1.13.84l1.39-3c1.38-3-20-43.71-20.7-45.09a118.64,118.64,0,0,1,22.31,44.32A2.37,2.37,0,0,1,351,1045Z"/><path class="cls-10" d="M332.38,990.61a2.35,2.35,0,0,1-1.73,2.12l-.3.09a2.31,2.31,0,0,0-1,.52,16,16,0,0,0,1.6-2.84c1.17-2.52-13.46-38.39-13.9-39.47C322.13,959.62,332.9,979.44,332.38,990.61Z"/><path class="cls-10" d="M323.24,944.72l-5.51,1.36s3.78-2.07,5.06-4.54-25.9-54.62-26.73-56.21c6,9.45,24.76,39.88,28.91,56.49A2.39,2.39,0,0,1,323.24,944.72Z"/><path class="cls-10" d="M214.91,1208.37c-.39,1.48-.78,2.93-1.14,4.33-3.93-6.81-12.6-27.4-15.5-34.37C199,1179.79,210.14,1203.2,214.91,1208.37Z"/><path class="cls-10" d="M205.59,1107l-13.5,3.48c1.57-.42,10.09-2.79,13.14-5.4,2.71-2.32-15.92-36.18-23.34-49.39l.49-.05c7.63,11.69,19.61,31.52,24.88,48.33A2.39,2.39,0,0,1,205.59,1107Z"/><path class="cls-10" d="M178.69,1044.62a2.27,2.27,0,0,0-.8.42l0,0c-.06.06-.2.11,1.32-2.15,1.72-2.57-20.22-43.28-20.88-44.5,6.07,7.92,17.56,24.72,22,43.36A2.39,2.39,0,0,1,178.69,1044.62Z"/><path class="cls-10" d="M160.61,990.47a2.34,2.34,0,0,1-1.86,2.18l-.53.12a2.3,2.3,0,0,0-.74.3l2-3c2-2.93-13.41-37.68-13.86-38.7C150.57,960.74,160.86,981.4,160.61,990.47Z"/><path class="cls-10" d="M151.27,944.73l-3.15.75a4.59,4.59,0,0,0,3.31-3.41c.52-3.38-27.06-55.56-27.91-57.17,5.58,8.33,23.57,36.18,29.49,56.87A2.38,2.38,0,0,1,151.27,944.73Z"/><path class="cls-10" d="M53.82,1020.59a2.34,2.34,0,0,1-1.8,2l-1.82.45c.22-.12.79-.64,2-2.8,1.73-3-12.69-35.31-13.54-37.22C44.41,992.94,54.73,1012.3,53.82,1020.59Z"/><circle class="cls-14" cx="211.78" cy="175.02" r="3.67"/><circle class="cls-14" cx="397.86" cy="339.85" r="1.83"/><circle class="cls-14" cx="594.91" cy="317.66" r="3.29"/><circle class="cls-14" cx="163.44" cy="800.7" r="3.29"/><circle class="cls-14" cx="957.02" cy="567.3" r="3.29"/><circle class="cls-14" cx="1091.72" cy="645.43" r="3.29"/><circle class="cls-14" cx="1032.31" cy="221.02" r="3.29"/><circle class="cls-14" cx="941.92" cy="94.61" r="4.15"/><circle class="cls-14" cx="377.73" cy="126.05" r="1.83"/><path class="cls-15" d="M50.07,1023.05h0l.11,0"/><path class="cls-15" d="M38.67,982.91l0,.09"/><path class="cls-10" d="M67.77,1055.17a2.37,2.37,0,0,1-4.22-.36c-2.86-7-9.5-18.81-13.46-25.66l0,0C51.33,1030.67,69.05,1052.65,67.77,1055.17Z"/><path class="cls-15" d="M146.12,946a8.67,8.67,0,0,0,2-.47h0"/><path class="cls-15" d="M123.52,884.9l0,0"/><path class="cls-15" d="M145.65,951.4v0"/><path class="cls-15" d="M158.31,998.41l0,0"/><path class="cls-15" d="M191.84,1110.53l.25-.07"/><path class="cls-15" d="M181.89,1055.67c-1.53-2.73-2.58-4.57-2.86-5.08l-.06-.08,0-.06"/><path class="cls-10" d="M217,1160.22c-.46,1.7-.88,3.27-1.25,4.7a176.55,176.55,0,0,1-9.47-17.2c-6.39-12.72-13.24-27.78-15.94-33.8.85,1.65,10,19.57,17.6,32.68C211.88,1153.46,215.37,1159,217,1160.22Z"/><path class="cls-15" d="M190.27,1113.8l.06.12"/><path class="cls-15" d="M198.24,1178.26l0,.07"/><path class="cls-15" d="M296.06,885.33l0,0"/><path class="cls-15" d="M329.12,993.66l0,0a1.34,1.34,0,0,0,.16-.19l.09-.1"/><path class="cls-15" d="M317.1,951v0"/><path class="cls-15" d="M349.49,1046v0"/><path class="cls-15" d="M330.15,997.78l0,0"/><path class="cls-15" d="M364,1110.55l.13,0c.5-.1,2.35-.5,4.49-1.14l.1,0"/><path class="cls-15" d="M350.33,1049.83l0,0"/><path class="cls-15" d="M363,1115.16l.13.3"/><path class="cls-15" d="M387.67,1229.45v0"/><path class="cls-15" d="M371.24,1180.27l-.05-.11"/><path class="cls-15" d="M385.37,1292.23l.13,0,.74-.16"/><path class="cls-15" d="M388.51,1235.07v0"/><line class="cls-15" x1="711.43" y1="1248.16" x2="711.38" y2="1248.15"/><path class="cls-9" d="M1315.89,1079.15a.09.09,0,0,1-.08,0,.13.13,0,0,1,0-.07.36.36,0,0,1,0-.11,2,2,0,0,1,0-.57q0-.27.09-.66c0-.18.07-.37.12-.58s0-.21.07-.32.12-.48.18-.74v0c.06-.25.13-.52.21-.8l.23-.8C1316,1076.81,1315.64,1078.56,1315.89,1079.15Z"/><path class="cls-9" d="M1317.08,1072.9c-.1.34-.2.66-.3,1,0-.16.09-.32.14-.48S1317,1073.07,1317.08,1072.9Z"/></g><g id="Calque_1" data-name="Calque 1"><path class="cls-16" d="M503.89,1345.72l-.11.26a.87.87,0,0,1-1.55.11l-.64-1.06C502.36,1345.28,503.13,1345.51,503.89,1345.72Z"/><path class="cls-16" d="M535.8,1358.38l-6.48,1.91,1.08-1.46a3.48,3.48,0,0,1,4.53-.95Z"/><path class="cls-16" d="M1218.13,1023.56h0l-.06-.13-2.62,17.13h.08c.8-.11,7.24-1,7.83-1.81S1218.75,1025.07,1218.13,1023.56Z"/><path class="cls-17" d="M1365.9,1086.85l-3.67-5.79a.66.66,0,0,1,.29-1l3-1.34a.66.66,0,0,0,.39-.69c-.49-3.08-3.4-19.86-10.77-28.75a.65.65,0,0,1,.35-1.07l4-.92a.66.66,0,0,0,.49-.81c-1.07-4-7.21-25.38-19-39a.66.66,0,0,0-1.06.08c-.11.18-.25.39-.39.63h0l0,.09-.07.13c0,.08-.1.18-.17.31l-.71,1.3c-.07.13-.15.26-.22.4l-.56,1-.24.44c-.85,1.57-1.91,3.54-3.09,5.75-.22.4-.44.82-.66,1.24-.86,1.61-1.76,3.32-2.68,5.07l-.43.83c-1,2-2,3.93-3,5.87l-.8,1.59c-1.55,3.08-3,6-4.06,8.37-.1.21-.19.42-.28.62a38.3,38.3,0,0,0-1.74,4.38q-.06.22-.09.39a1.19,1.19,0,0,0,0,.73,5,5,0,0,0,3.53,2.13h.12l.55,0a.66.66,0,0,1,.52,1l-.3.51v0s0,0,0,0l-.13.34-.1.27-.13.33c0,.11-.09.23-.13.35a1.12,1.12,0,0,0,0,.13l-.3.77c-.1.28-.21.57-.34.89l-.69,1.86-.18.48a1.07,1.07,0,0,0-.07.19c-.09.22-.17.45-.25.68a.61.61,0,0,0,0,.12l-.3.81c-.51,1.36-1,2.82-1.58,4.33-.1.25-.19.49-.27.74l-.12.33-.39,1.1c-.51,1.43-1,2.88-1.49,4.26l-.22.66c-.44,1.32-.86,2.59-1.22,3.74-.1.34-.2.66-.3,1,0,.1-.06.2-.08.29a2.76,2.76,0,0,0-.08.27c-.66,2.37-1,4.12-.73,4.71a3.33,3.33,0,0,0,1.35,1.17h0l.39.07a.66.66,0,0,1,.46,1l-1.81,3.15a.66.66,0,0,1-1.2-.13c-1.72-5.39-8.49-25-20.77-42.13a.65.65,0,0,1,.33-1l5.93-1.8a.66.66,0,0,0,.46-.77c-1-4.42-7.53-32.52-17.44-44.29a.66.66,0,0,1,.41-1.07l6.93-1.13a.65.65,0,0,0,.52-.83c-1.52-5.13-11.41-36.93-28.38-58.59a.66.66,0,0,0-1.06,0l-.86,1.26h0v0c-.9,1.68-30.86,57.83-28.26,59s7,2.65,7,2.65a.66.66,0,0,1,.49,1l-.69,1.4v0a1.91,1.91,0,0,1-.09.2c-1.38,3.33-17.36,41.86-14.9,42.71a18.08,18.08,0,0,1,4.13,2h0a.66.66,0,0,1,.41,1l-6.71,9.27a.66.66,0,0,1-1.11-.06l-6.49-11.75a.65.65,0,0,1,.53-1l2.62-17.13c-4.49-10-10.78-22.64-17.74-32.86a.65.65,0,0,1,.36-1L1206,988a.65.65,0,0,0,.46-.75c-.87-4.4-6.71-32.48-16.73-44.43a.66.66,0,0,1,.4-1.07l7.09-1.17a.64.64,0,0,0,.52-.84c-1.76-5.68-14-43.55-29.16-59.06a.67.67,0,0,0-1,.11l-.91,1.44,0,0c-.88,1.66-31,58.18-27,58.87a31.08,31.08,0,0,0,6.72,2.66l.23,0a.66.66,0,0,1,.5,1c-.25.38-.57.89-1,1.5,0,0-16.49,42-14.25,42.59l2.8,2.26a.66.66,0,0,1,.27,1.09l-.85.86,0,0c-.69,1.36-23.43,46.05-22.31,47.86.86,1.37,1.42,1.72,1.64,1.8l.12,0,.77.17a.65.65,0,0,1,.43,1l0,.08a.43.43,0,0,0,0,.07c-1.89,3.33-8.52,15.11-12.92,24.64-1.31,2.83-2.42,5.45-3.16,7.61a.66.66,0,0,1-1.16.16l-.44-.64-2.81-4a.66.66,0,0,1,.37-1l4.49-1.2a.55.55,0,0,0,.38-.3.53.53,0,0,0,.1-.4c-.33-2.93-2.4-16.89-12.84-32.08a.65.65,0,0,1,.38-1l4.18-1a.66.66,0,0,0,.49-.78,126.74,126.74,0,0,0-21-44.89.67.67,0,0,0-1.1,0l-.67,1.07,0,0c-.64,1.26-22,42.73-20.66,43.83a19.13,19.13,0,0,0,3.92,2.2h0l.78.14a.66.66,0,0,1,.46,1c-.13.23-.28.5-.45.82v0c-.32.91-11.49,32.44-9.74,33.16l1.88,1.12.07,0a.66.66,0,0,1,.18.92l-.66,1v0l0,0,0,.06-.67,1.22-.27.49a2.25,2.25,0,0,1-.12.21l-.13.23c-1,1.84-2.52,4.64-4.23,7.84-4.73,8.87-10.88,20.83-11.29,23.82-.05.38,0,.61.14.68,2,.92,1.65,1.86,1.65,1.86a.66.66,0,0,1,.35,1l-.72,1.08,0,0c-.67,1.19-23.57,41.55-20.84,43s9.7,3.31,10.58,3.55l.09,0,.47.1a.66.66,0,0,1,.47.93l-.5,1s0,.09-.13.25l-.08.17-.05.1a.6.6,0,0,1-.06.11h0l-.09.19c0,.06-.06.13-.1.2h0a0,0,0,0,1,0,0l0,.11-1.81,3.77-.06.14c-.08.15-.15.31-.23.47l-.18.39-.09.19a.09.09,0,0,0,0,.06c-.11.22-.22.44-.32.66l-.33.69c-1,2.11-2.18,4.53-3.4,7.09l-.09.19c-.07.14-.13.28-.21.42a2.14,2.14,0,0,1-.1.22l-.09.19-.4.84c-.25.52-.51,1-.76,1.58l0,0,0,.06-.36.78c-.14.29-.28.59-.43.88s-.29.62-.44.92c-.26.55-.53,1.1-.79,1.66l-.46,1-.42.88c-.12.26-.25.51-.37.77-.31.66-.63,1.31-.93,2l-1,2.18c-.56,1.18-1.1,2.32-1.62,3.4-.12.25-.23.5-.35.74l-.68,1.43-.07.14a1.54,1.54,0,0,1-.08.19l-.17.35c-.15.32-.3.62-.43.92s-.2.41-.28.6c-.35.73-.67,1.4-.95,2a.61.61,0,0,0-.05.12l-.17.35,0,.1-.07.13a1.47,1.47,0,0,1-.1.22l-.22.49c-.11.22-.2.43-.29.61s-.08.17-.11.25-.09.2-.13.29l-.09.2,14.06,4.07h0l.82.15a.65.65,0,0,1,.48.92c-.07.15-.15.32-.25.51l-.06.13-.07.16-.2.49-.43,1-.06.14-.33.77c-.63,1.49-1.49,3.51-2.49,5.82h0c-4.33,10-11.19,25.38-13,26.83l4.5,3.11a.66.66,0,0,1,.42,1l-.46.86,0,.1-.06.12c-.35.73-1.53,3.18-3.16,6.54-.11.22-.21.45-.33.68s-.24.5-.36.76-.39.79-.59,1.2l-2.46,5-.83,1.7c-1.74,3.54-3.57,7.27-5.29,10.72-.23.45-.45.9-.68,1.34,0,.1-.09.19-.14.29-.26.53-.53,1.06-.79,1.57-.88,1.74-1.7,3.37-2.45,4.8l-.64,1.24c-1.13,2.15-2,3.73-2.46,4.41l20.68,6.05h0l35.12,7a.82.82,0,0,0,.27,0l21.61-4.74a.65.65,0,0,1,.8.65l-.06,6.36c-45.07,3.93-89.75,8.09-93,7.69-3-.37-11.82.48-20.43,1.5l-4.87.6c-3.61.45-7,.9-9.57,1.25l-2.18.31-2,.28a3.56,3.56,0,0,0-1.72.78,47.33,47.33,0,0,1-8.45,4.68c-1.73.8-3.63,1.65-5.67,2.51-2.26,1-4.69,2-7.23,3-21.42,8.57-50.35,18.21-50.35,18.21-2.82,1-7.86.71-10.09.51a3.46,3.46,0,0,0-2.06.46c-8.12,4.77-28.65,12.41-34,14.38a3.39,3.39,0,0,1-2.43,0,16.42,16.42,0,0,0-5.31-1.16,20,20,0,0,0-11.31,3.08,3.44,3.44,0,0,1-3,.3,25.65,25.65,0,0,0-4.93-1.46c-1.17-.09-3.26,2.34-4.47,3.89a3.5,3.5,0,0,1-2.58,1.33l-4.8.22a3.64,3.64,0,0,0-1.3.31c-19.53,8.89-25.11,15.54-26.7,18.61a6.37,6.37,0,0,0-.57,1.47,3.32,3.32,0,0,1-.84,1.55c-2.12,2.12-7,2.44-10.67,2.34-1.12,0-2.11-.09-2.87-.16a3.51,3.51,0,0,0-2.67.93l-3.41,3.19h0l-2.29,2.15a3.39,3.39,0,0,1-2.67.92,8.61,8.61,0,0,0-2,0h0a17.19,17.19,0,0,0-7.39,3.27c-.36.26-.68.5-.94.71a3.54,3.54,0,0,1-2.22.74h-.12l-21.26-.43a3.38,3.38,0,0,1-1.7-.48,12.06,12.06,0,0,0-2.75-1.27,3.57,3.57,0,0,0-3.48,1l0,0a3.43,3.43,0,0,1-4.81-.34c-7.31-8.08-14.58-10.56-17.51-11.27a3.46,3.46,0,0,0-2.44.32l-7.53,4a3.47,3.47,0,0,1-4-.5c-3.22-3-9.75-6.55-12.9-8.17a3.4,3.4,0,0,1-1.77-2.23c-1.66-7.36-28.68-16.66-28.68-16.66-1.48-1.18-6.91-.27-9.58.27a3.45,3.45,0,0,0-2.19,1.44,24.22,24.22,0,0,1-12.66,9.3,3.48,3.48,0,0,1-3.88-1.23l-7.83-10.55a3.49,3.49,0,0,0-2.8-1.41H549a3.54,3.54,0,0,1-1.74-.46l-11.45-6.59h0l-6.48,1.91L528,1362a3.48,3.48,0,0,1-5.37.28l0,0-13.36-14.6a3.42,3.42,0,0,0-1.83-1.05c-1.16-.26-2.34-.55-3.53-.89l-.11.26a.87.87,0,0,1-1.55.11l-.64-1.06a102.34,102.34,0,0,1-10.89-4.19c-19.74-8.8-39.23-23.35-43.64-26.72a3.51,3.51,0,0,0-2.12-.71H379.65A3.43,3.43,0,0,1,378,1313a9.32,9.32,0,0,0-1.61-.63c-.21-.07-.43-.14-.67-.2l-.13,0-.42-.12c-.87-.23-1.89-.47-3.06-.7-.52-.11-1.07-.22-1.64-.32-.86-.17-1.79-.33-2.78-.5l-1-.16-2.13-.34c-1.42-.21-2.93-.43-4.54-.65l-2.94-.39-1.78-.23c-2.72-.34-5.65-.69-8.77-1l-2.44-.27-1-.11-.86-.09-5.13-.54-3.58-.37-1.83-.18-3.27-.32-3.56-.34-2.73-.26L320,1305l-3.21-.3-2.75-.24-2.09-.19-4-.35v-5.39a2.38,2.38,0,0,1,2.88-2.32l25.91,5.6a2.27,2.27,0,0,0,1,0l47.68-9.59.13,0,.74-.16.23,0,.53-.12.48-.11.51-.11c5.3-1.25,17.18-4.17,21.71-6.47,1.22-.83,1.61-1.65.72-2.43-7.1-2.29-21-44.94-21.88-47.58a.14.14,0,0,0,0-.06.06.06,0,0,0,0,0v0c-.32-.77-.6-1.47-.85-2.09l-.42-1a2.35,2.35,0,0,1,.43-2.43v0a11.93,11.93,0,0,1,3.4-3.71,1.08,1.08,0,0,0,.23-1.47c-.3-.45-.67-1.09-1.09-1.88l-.51-1,0-.05-.2-.4c-.07-.14-.15-.28-.22-.43l-.48-1-.6-1.23c-.13-.27-.27-.54-.4-.82l-.53-1.11c-.18-.38-.37-.77-.55-1.17-.5-1.06-1-2.17-1.55-3.32l-.8-1.75c-.27-.59-.55-1.19-.82-1.8l0-.1-.78-1.74-.24-.53c-.13-.31-.27-.61-.41-.92l-2.26-5.11c-.28-.62-.55-1.24-.82-1.85l-1.82-4.16-.52-1.2-.36-.84-.36-.83c-.12-.27-.24-.54-.35-.81-.24-.53-.46-1-.68-1.56l-.63-1.47-.52-1.2-.24-.56c-.4-.93-.75-1.76-1.06-2.47-.11-.28-.22-.53-.32-.77-.39-.9-.67-1.55-.8-1.87l-.06-.13-.05-.11-.8-1.66a2.34,2.34,0,0,1,.46-2.7,2.31,2.31,0,0,1,1.12-.64,72.09,72.09,0,0,0,14.73-6.32.61.61,0,0,0,.18-.9c-3.81-5.12-22.08-48.43-23.78-52.48l-.13-.3c-.23-.49-.43-.94-.61-1.34a2.37,2.37,0,0,1,1.59-3.27l.13,0,4.49-1.14.1,0c3.43-1,7.55-2.65,8.12-4.63.24-.84-1.21-4.54-3.53-9.65-7.08-15.51-22.3-44.06-22.91-45.21l0,0-.79-1a2.39,2.39,0,0,1-.06-2.83v0c.06-.14.31-.69,1.38-3,1.38-3-20-43.71-20.7-45.09l0,0-.95-1.12a2.37,2.37,0,0,1-.08-3l0,0a.7.7,0,0,1,.16-.19l.09-.1a16,16,0,0,0,1.6-2.84c1.17-2.52-13.46-38.39-13.9-39.47v0l-.83-1.41a2.37,2.37,0,0,1,1.47-3.52s3.78-2.07,5.06-4.54-25.9-54.62-26.73-56.21l0,0a2.37,2.37,0,0,0-3.91-.14c-16.35,21.72-24.8,47.26-27.15,55.13a2.37,2.37,0,0,0,1.75,3l2.76.62a2.38,2.38,0,0,1,1.46,3.62c-9.13,13.54-14,33.48-15.44,40.07a2.37,2.37,0,0,0,1.7,2.79l1.91.52a2.37,2.37,0,0,1,1.37,3.58c-11.41,17.41-18.83,37.82-21.22,44.86a2.38,2.38,0,0,0,1.78,3.08l2.78.57a2.37,2.37,0,0,1,1.48,3.66c-2,2.93-4,6.4-6.11,10.21-10.34,19-21,46.21-24.33,55.05a2.37,2.37,0,0,0,2,3.21l12.74,1.3a2.37,2.37,0,0,1,1.87,3.44c-3.94,7.55-7.54,17.48-10.46,26.71-1.55,4.91-2.9,9.62-4,13.66-.46,1.7-.88,3.27-1.25,4.7a176.55,176.55,0,0,1-9.47-17.2c-6.39-12.72-13.24-27.78-15.94-33.8l-.06-.12a2.38,2.38,0,0,1,1.57-3.27l.25-.07.6-.16h0l.18,0,.2-.06.42-.12.51-.15.57-.17,1.25-.39.77-.25c.65-.22,1.32-.45,2-.7l.86-.33.16-.06,1-.41.06,0c.41-.17.81-.35,1.19-.53a3.55,3.55,0,0,0,.44-.21c.39-.18.76-.38,1.1-.57l.39-.22a10.32,10.32,0,0,0,1.4-1c2.71-2.32-15.92-36.18-23.34-49.39l.49-.05c-1.25-1.91-2.38-3.6-3.35-5l-.06-.08,0,0v0c-.58-.83-1.08-1.58-1.52-2.21a2.35,2.35,0,0,1-.42-1.34,2.38,2.38,0,0,1,.84-1.82s0,0,0,0,0,0,0,0l0-.06.05-.09.07-.13.24-.39.06-.1.06-.1.83-1.25c1.72-2.57-20.22-43.28-20.88-44.5l0,0c-.52-.67-1-1.28-1.42-1.82a2.37,2.37,0,0,1,.61-3.49l2-3a2.61,2.61,0,0,0,.13-1.57c0-.17,0-.35-.07-.55a1.7,1.7,0,0,0,0-.22c-.05-.27-.11-.55-.18-.86,0-.1,0-.2-.07-.31a4.21,4.21,0,0,0-.12-.48c-.06-.23-.12-.48-.19-.72s-.06-.24-.1-.37a2.76,2.76,0,0,0-.08-.27c0-.19-.11-.39-.17-.59s-.12-.41-.19-.62c-.14-.47-.3-1-.46-1.46-.12-.34-.23-.69-.35-1.05s-.21-.58-.31-.88-.29-.83-.44-1.25c-.47-1.31-1-2.68-1.51-4.09-.16-.42-.32-.85-.49-1.28,0-.11-.08-.21-.13-.32-.15-.41-.32-.84-.48-1.26l-.63-1.59-.32-.8-1.13-2.79c-.29-.71-.58-1.42-.87-2.11-.14-.34-.28-.67-.41-1l-.58-1.38-.94-2.24c-.28-.68-.56-1.33-.83-2l-.27-.63c-.18-.41-.34-.8-.5-1.17l-1.26-2.91c-.06-.12-.11-.24-.16-.36s-.1-.22-.14-.33-.14-.31-.2-.44l-.34-.77a.24.24,0,0,0,0-.07v0l-1.06-2a2.37,2.37,0,0,1,1.54-3.43l2-.47h0a4.59,4.59,0,0,0,3.31-3.41c.52-3.38-27.06-55.56-27.91-57.17l0,0a2.36,2.36,0,0,0-3.73-.27C107.76,898,96.06,930.69,92.9,940A2.36,2.36,0,0,0,94.62,943l2.48.58a2.36,2.36,0,0,1,1.43,3.63c-8.67,12.63-14,33.22-15.58,40a2.37,2.37,0,0,0,1.72,2.84l2.14.55a2.38,2.38,0,0,1,1.38,3.62,165.85,165.85,0,0,0-21.44,45,2.37,2.37,0,0,0,1.79,3l3.07.64a2.37,2.37,0,0,1,1.53,3.57l-5.37,8.7a2.37,2.37,0,0,1-4.22-.36c-2.86-7-9.5-18.81-13.46-25.66h0l0,0-1.49-2.56a2.37,2.37,0,0,1,1.49-3.5h0l.11,0c.22-.12.79-.64,2-2.8a3.17,3.17,0,0,0,.06-1.74c0-.17-.06-.36-.1-.56s-.08-.41-.13-.62a4.7,4.7,0,0,0-.12-.51c-.07-.3-.16-.61-.24-.93s-.13-.47-.21-.71-.15-.49-.22-.75-.17-.51-.25-.78c-.33-1.06-.72-2.2-1.15-3.41-.14-.39-.28-.78-.43-1.18s-.34-.95-.53-1.43l-.27-.72c-.31-.84-.64-1.69-1-2.54l-.45-1.13c-.55-1.41-1.13-2.84-1.7-4.24-.11-.25-.21-.51-.31-.76-.73-1.77-1.45-3.49-2.14-5.11-.09-.23-.19-.46-.29-.68l-.65-1.53-.41-1c-.19-.45-.37-.88-.56-1.29l-.24-.56c-.08-.2-.17-.4-.25-.59s-.24-.56-.36-.82l-.19-.42-.18-.43a2.56,2.56,0,0,1-.11-.24l-.32-.73,0-.05-.39-.9c-.17-.36-.29-.63-.36-.8l0-.1,0-.09c-.7-1.22-1.32-2.29-1.85-3.18a2.38,2.38,0,0,1,.76-3.21h0a2.37,2.37,0,0,1,.79-.31l.78-.16c1.82-.63,4.57-1.92,4.62-3.94.08-3-25.91-54.9-26.72-56.52l0,0a2.37,2.37,0,0,0-4,0L0,935.85v728.42a3.48,3.48,0,0,0,3.48,3.48h1359a3.48,3.48,0,0,0,3.48-3.48V1087.2A.71.71,0,0,0,1365.9,1086.85ZM199.6,1175.12l15-5.56-.2.81a2.37,2.37,0,0,0,1.9,2.89l7.79,1.4a2.37,2.37,0,0,1,1.61,3.56c-3.83,6.47-7.77,19.13-10.75,30.15-.39,1.48-.78,2.93-1.14,4.33-3.93-6.81-12.6-27.4-15.5-34.37l0-.07A2.37,2.37,0,0,1,199.6,1175.12Zm83.14,126.71h0q-6-.48-12.2-1l7.66-2.49,6.9-2.24a2.38,2.38,0,0,1,3.11,2.41l-.23,3.7Zm818.14,0-6.72,1.31a.69.69,0,0,1-.32,0l-1.92-.57c-6,.49-12.22,1-18.49,1.56v-6.2a.66.66,0,0,1,.85-.63l17.64,5.27q4.56-.39,9-.73l18.3-3.58a.82.82,0,0,1,.27,0l6.06,1.32a.66.66,0,0,0,.28,0l28.15-6.13a.66.66,0,0,1,.79.64l0,4.64C1148.74,1298.22,1127.26,1299.66,1100.88,1301.8Z"/><path class="cls-10" d="M1002.94,1295.92l-23.9-4.77a.66.66,0,0,1-.35-1.09c1.68-1.91,4.82-6.92,8.3-12.85.75-1.27,1.51-2.58,2.27-3.91.67-1.16,1.34-2.34,2-3.52l0,0c1.33-2.35,2.66-4.71,3.91-7,.94-1.7,1.85-3.33,2.69-4.86.14-.26.28-.5.41-.75l1.9-3.46.34-.62c.13-.26.27-.51.4-.75s.35-.65.52-.95l.34-.64.38-.68c.08-.17.17-.34.26-.49-.35.73-1.53,3.18-3.16,6.54l-.33.68c-.12.24-.24.5-.36.76s-.39.79-.59,1.2l-2.46,5-.83,1.7c-1.74,3.54-3.57,7.27-5.29,10.72l-.68,1.34c0,.1-.09.19-.14.29l-.79,1.57c-.88,1.74-1.7,3.37-2.45,4.8l-.64,1.24c-1.13,2.15-2,3.73-2.46,4.41Z"/><path class="cls-16" d="M1100.88,1301.8l-6.72,1.31a.69.69,0,0,1-.32,0l-1.92-.57Q1096.48,1302.14,1100.88,1301.8Z"/><path class="cls-10" d="M1339.55,1008.31l-.07.13c0,.08-.1.18-.17.31l-.71,1.3c-.07.13-.15.26-.22.4l-.56,1-.24.44c-.85,1.57-1.91,3.54-3.09,5.75-.22.4-.44.82-.66,1.24-.86,1.61-1.76,3.32-2.68,5.07l-.43.83c-1,2-2,3.93-3,5.87l-.8,1.59c-1.55,3.08-3,6-4.06,8.37-.1.21-.19.42-.28.62a38.3,38.3,0,0,0-1.74,4.38q-.06.22-.09.39a1.19,1.19,0,0,0,0,.73,5,5,0,0,0,3.53,2.13l-4.94-.38a.56.56,0,0,1-.35-.13C1316.24,1045.61,1335.07,1015.36,1339.55,1008.31Z"/><path class="cls-10" d="M1019,1162.9l-1.81,3.77-.06.14c0,.08-.08.17-.13.25l-.1.22-.18.39h0a1.08,1.08,0,0,0-.08.19.09.09,0,0,0,0,.06c-.11.22-.22.44-.32.66l-.33.69c-1,2.11-2.18,4.53-3.4,7.09l-.09.19c-.07.14-.13.28-.21.42a2.14,2.14,0,0,1-.1.22l-.09.19-.4.84c-.25.52-.51,1-.76,1.58l0,0,0,.06-.36.78c-.14.29-.28.59-.43.88s-.29.62-.44.92c-.26.55-.53,1.1-.79,1.66l-.46,1-.42.88c-.12.26-.25.51-.37.77-.31.66-.63,1.31-.93,2l-1,2.18c-.56,1.18-1.1,2.32-1.62,3.4-.12.25-.23.5-.35.74l-.68,1.43-.07.14a1.54,1.54,0,0,1-.08.19l-.17.35c-.15.32-.3.62-.43.92s-.2.41-.28.6c-.35.73-.67,1.4-.95,2a.61.61,0,0,0-.05.12l-.17.35,0,.1-.07.13a1.47,1.47,0,0,1-.1.22l-.22.49c-.11.22-.2.43-.29.61s-.08.17-.11.25-.09.2-.13.29l-.09.2,14.06,4.07-16.48-3a.66.66,0,0,1-.39-1.06l.24-.3h0l.09-.11q.33-.43.72-1l.27-.4.29-.43.3-.46.64-1,1.09-1.77.64-1.1c.13-.21.25-.42.37-.63.29-.49.58-1,.88-1.52l1.05-1.86.4-.72.14-.24c.13-.25.27-.5.41-.75s.29-.53.44-.8c0-.11.12-.22.18-.33l.63-1.16.42-.78.66-1.23.09-.16c.24-.47.5-.94.74-1.41.15-.26.29-.53.42-.79s.28-.53.42-.79l.64-1.22c.07-.12.13-.25.19-.37l.54-1,.54-1,.41-.8.42-.8.15-.3.26-.5c.05-.1.1-.19.14-.29l.4-.77c.06-.13.13-.26.2-.38l.19-.39.27-.52c.17-.33.34-.66.5-1s.26-.5.38-.74l1.8-3.55.61-1.22.05-.1.32-.64c.18-.34.35-.68.5-1a1.09,1.09,0,0,0,.08-.15l.24-.49.06-.11,0-.06c.13-.27.27-.53.4-.79l.13-.28,0,0,.26-.52c.16-.34.32-.66.48-1S1018.84,1163.13,1019,1162.9Z"/><path class="cls-10" d="M1008.44,1156.09c2.6,1.36,9.7,3.31,10.58,3.55l-12.47-2.56a.66.66,0,0,1-.52-.73c1.1-9.33,18.45-36,23.25-43.24C1028.61,1114.3,1005.71,1154.66,1008.44,1156.09Z"/><path class="cls-10" d="M1048.2,1034.18a19.13,19.13,0,0,0,3.92,2.2l-5-.92a.67.67,0,0,1-.51-.86c5.76-17,18.36-37.91,22.29-44.25C1068.22,991.61,1046.9,1033.08,1048.2,1034.18Z"/><path class="cls-10" d="M1043.19,1071.5l1.88,1.12a.66.66,0,0,0-.2-.06l-2.64-.36a.67.67,0,0,1-.57-.74c1.9-14.76,8.77-28.5,11.27-33.12C1052.61,1039.25,1041.44,1070.78,1043.19,1071.5Z"/><path class="cls-10" d="M1139.62,941.15a31.08,31.08,0,0,0,6.72,2.66l-9.46-.86a.65.65,0,0,1-.57-.85c7-21.83,25.14-51.61,30.29-59.82C1165.72,883.94,1135.62,940.46,1139.62,941.15Z"/><path class="cls-10" d="M1131.87,988.94l2.8,2.26-5-1.59a.66.66,0,0,1-.45-.76c3.94-20.05,13.23-36.52,16.93-42.5C1146.12,946.35,1129.63,988.35,1131.87,988.94Z"/><path class="cls-10" d="M1113.4,1042.84l-4.12-.91a.65.65,0,0,1-.49-.84c9.13-29,21-43.37,25.28-47.91-.69,1.36-23.43,46.05-22.31,47.86C1112.62,1042.41,1113.18,1042.76,1113.4,1042.84Z"/><path class="cls-16" d="M1100.88,1301.8l-6.72,1.31a.69.69,0,0,1-.32,0l-1.92-.57Q1096.48,1302.14,1100.88,1301.8Z"/><path class="cls-10" d="M1261.14,934.1c-.9,1.68-30.86,57.83-28.26,59s7,2.65,7,2.65l-8.91-1.33a.66.66,0,0,1-.54-.83c6.44-22.57,25.46-51.69,30.73-59.52Z"/><path class="cls-10" d="M1224.67,1041a18.08,18.08,0,0,1,4.13,2l-4.91-1a.67.67,0,0,1-.53-.65c0-.41,0-.85.09-1.31h0l.49-2.85c2.46-11.5,12.19-31.9,15.64-38.88C1238.19,1001.66,1222.21,1040.19,1224.67,1041Z"/><path class="cls-10" d="M1325.09,1050.52l-.13.34-.1.27-.13.33-.1.25,0,.1h0s0,.08,0,.13l-.3.77c-.1.28-.21.57-.34.89l-.69,1.86-.18.48a1.07,1.07,0,0,0-.07.19c-.09.22-.17.45-.25.68a.61.61,0,0,0,0,.12l-.3.81c-.51,1.36-1,2.82-1.58,4.33-.1.25-.19.49-.27.74l-.12.33-.39,1.1c-.51,1.43-1,2.88-1.49,4.26l-.22.66c-.44,1.32-.86,2.59-1.22,3.74-.1.34-.2.66-.3,1,0,.1-.06.2-.08.29a2.76,2.76,0,0,0-.08.27l-.23.8c-.08.28-.15.55-.21.8v0c-.07.26-.13.51-.18.74s0,.21-.07.32-.09.4-.12.58-.07.48-.09.66a2,2,0,0,0,0,.57.36.36,0,0,0,0,.11.13.13,0,0,0,0,.07.09.09,0,0,0,.08,0,3.33,3.33,0,0,0,1.35,1.17l-1.88-.32a.66.66,0,0,1-.54-.73C1316.26,1066.9,1322.72,1054.66,1325.09,1050.52Z"/><path class="cls-16" d="M43.79,972.1c0,2-2.8,3.31-4.62,3.94a12.19,12.19,0,0,1-1.57.47h0L17.07,915.58C17.88,917.2,43.87,969.13,43.79,972.1Z"/><path class="cls-10" d="M1044.59,1074.66l-.67,1.22-.27.49a2.25,2.25,0,0,1-.12.21l-.13.23c-1,1.84-2.52,4.64-4.23,7.84-4.73,8.87-10.88,20.83-11.29,23.82-.05.38,0,.61.14.68,2,.92,1.65,1.86,1.65,1.86l-3.05-1a.67.67,0,0,1-.46-.64c0-.29,0-.6.1-.92.84-5.47,6.51-15.45,11.54-23.48C1040.54,1080.63,1043.09,1076.84,1044.59,1074.66Z"/><path class="cls-10" d="M1014.66,1209.37l-.2.49-.43,1-.06.14-.33.77c-.63,1.49-1.49,3.51-2.49,5.82h0c-4.33,10-11.19,25.38-13,26.83l4.5,3.11-7.69-1.92a.65.65,0,0,1-.35-1c5.24-6.71,11.59-18.38,15.89-26.77l.71-1.38.62-1.24c.66-1.31,1.25-2.49,1.75-3.51l.24-.49c.08-.15.15-.31.22-.45s.15-.29.21-.43Z"/><path class="cls-10" d="M1114.63,1044.15c-1.89,3.33-8.52,15.11-12.92,24.64-1.31,2.83-2.42,5.45-3.16,7.61a.66.66,0,0,1-1.16.16l-.44-.64c-.23-.52,1-3.13,2.88-6.65C1104.58,1060.42,1113.61,1045.79,1114.63,1044.15Z"/><path class="cls-16" d="M1223.36,1038.73c-.59.83-7,1.7-7.83,1.81h-.08l2.62-17.13.06.13h0C1218.75,1025.07,1224,1037.89,1223.36,1038.73Z"/></g></svg>